<svg xmlns="http://www.w3.org/2000/svg" xmlns:xlink="http://www.w3.org/1999/xlink" width="500" zoomAndPan="magnify" viewBox="0 0 375 374.999991" height="500" preserveAspectRatio="xMidYMid meet" version="1.0"><defs><g/><clipPath id="cb95406ca1"><path d="M 10 47 L 187 47 L 187 232 L 10 232 Z M 10 47 " clip-rule="nonzero"/></clipPath><clipPath id="2bc72029c1"><path d="M 210.101562 366.742188 L 2.6875 184.65625 L 191.699219 -30.648438 L 399.113281 151.4375 Z M 210.101562 366.742188 " clip-rule="nonzero"/></clipPath><clipPath id="e5b668895f"><path d="M 210.144531 366.78125 L 2.167969 184.203125 L 191.179688 -31.105469 L 399.160156 151.476562 Z M 210.144531 366.78125 " clip-rule="nonzero"/></clipPath><clipPath id="36fa83d9ca"><path d="M 82 110 L 259 110 L 259 296 L 82 296 Z M 82 110 " clip-rule="nonzero"/></clipPath><clipPath id="6cd9b4ac67"><path d="M 210.101562 366.742188 L 2.6875 184.65625 L 191.699219 -30.648438 L 399.113281 151.4375 Z M 210.101562 366.742188 " clip-rule="nonzero"/></clipPath><clipPath id="5a408b5fc8"><path d="M 210.144531 366.78125 L 2.167969 184.203125 L 191.179688 -31.105469 L 399.160156 151.476562 Z M 210.144531 366.78125 " clip-rule="nonzero"/></clipPath><clipPath id="4089c56978"><path d="M 154 173 L 331 173 L 331 359 L 154 359 Z M 154 173 " clip-rule="nonzero"/></clipPath><clipPath id="581afef002"><path d="M 210.101562 366.742188 L 2.6875 184.65625 L 191.699219 -30.648438 L 399.113281 151.4375 Z M 210.101562 366.742188 " clip-rule="nonzero"/></clipPath><clipPath id="3a81928bfa"><path d="M 210.144531 366.78125 L 2.167969 184.203125 L 191.179688 -31.105469 L 399.160156 151.476562 Z M 210.144531 366.78125 " clip-rule="nonzero"/></clipPath><clipPath id="b4d30b4b04"><path d="M 129 17 L 355 17 L 355 223 L 129 223 Z M 129 17 " clip-rule="nonzero"/></clipPath><clipPath id="27e40439b0"><path d="M 210.101562 366.742188 L 2.6875 184.65625 L 191.699219 -30.648438 L 399.113281 151.4375 Z M 210.101562 366.742188 " clip-rule="nonzero"/></clipPath><clipPath id="9bb453f935"><path d="M 210.144531 366.78125 L 2.167969 184.203125 L 191.179688 -31.105469 L 399.160156 151.476562 Z M 210.144531 366.78125 " clip-rule="nonzero"/></clipPath></defs><rect x="-37.5" width="450" fill="#ffffff" y="-37.499999" height="449.999989" fill-opacity="1"/><rect x="-37.5" width="450" fill="#ffffff" y="-37.499999" height="449.999989" fill-opacity="1"/><g clip-path="url(#cb95406ca1)"><g clip-path="url(#2bc72029c1)"><g clip-path="url(#e5b668895f)"><path fill="#07a693" d="M 102.703125 198.707031 L 79.554688 225.070312 C 72.175781 233.476562 59.253906 234.316406 50.847656 226.9375 L 17.695312 197.832031 C 9.308594 190.472656 8.488281 177.566406 15.867188 169.160156 L 33.226562 149.390625 C 55.136719 168.625 78.507812 184.996094 102.703125 198.707031 Z M 122.78125 47.371094 L 42.179688 139.1875 C 64.09375 158.425781 87.449219 174.8125 111.644531 188.519531 L 186.476562 103.277344 L 122.785156 47.367188 Z M 122.78125 47.371094 " fill-opacity="1" fill-rule="nonzero"/></g></g></g><g clip-path="url(#36fa83d9ca)"><g clip-path="url(#6cd9b4ac67)"><g clip-path="url(#5a408b5fc8)"><path fill="#fa7623" d="M 196.597656 236.902344 L 151.523438 288.25 C 144.140625 296.65625 131.226562 297.5 122.8125 290.113281 L 89.699219 261.046875 C 81.273438 253.644531 80.445312 240.738281 87.824219 232.332031 L 112.597656 204.113281 C 139.855469 218.535156 168.078125 229.457031 196.597656 236.902344 Z M 194.742188 110.542969 L 121.546875 193.914062 C 148.800781 208.347656 177.035156 219.261719 205.542969 226.714844 L 258.441406 166.457031 L 194.746094 110.539062 Z M 194.742188 110.542969 " fill-opacity="1" fill-rule="nonzero"/></g></g></g><g clip-path="url(#4089c56978)"><g clip-path="url(#581afef002)"><g clip-path="url(#3a81928bfa)"><path fill="#e41968" d="M 314.507812 247.726562 L 223.480469 351.417969 C 216.101562 359.824219 203.195312 360.679688 194.8125 353.320312 L 161.660156 324.214844 C 153.253906 316.835938 152.410156 303.914062 159.792969 295.507812 L 208.644531 239.859375 C 244.164062 247.867188 279.898438 250.503906 314.507812 247.726562 Z M 266.707031 173.71875 L 217.601562 229.65625 C 253.101562 237.683594 288.828125 240.332031 323.464844 237.527344 L 330.398438 229.625 L 266.710938 173.714844 Z M 266.707031 173.71875 " fill-opacity="1" fill-rule="nonzero"/></g></g></g><g clip-path="url(#b4d30b4b04)"><g clip-path="url(#27e40439b0)"><g clip-path="url(#9bb453f935)"><path fill="#4066b8" d="M 181.957031 21.019531 L 240.964844 17.171875 C 245.136719 16.902344 247.695312 18.136719 249.214844 19.46875 C 250.152344 20.292969 250.710938 21.171875 250.992188 21.75 C 251.765625 23.28125 253.039062 27.375 248.601562 32.507812 L 225.292969 59.0625 Z M 170.621094 23.628906 C 162.238281 16.269531 149.339844 17.121094 141.949219 25.542969 L 129.015625 40.273438 L 192.703125 96.183594 L 219.0625 66.15625 Z M 200.972656 103.441406 L 264.667969 159.363281 L 291.03125 129.335938 L 227.332031 73.417969 Z M 272.9375 166.621094 L 336.628906 222.53125 L 349.558594 207.800781 C 356.949219 199.378906 356.125 186.480469 347.742188 179.121094 L 299.300781 136.59375 Z M 272.9375 166.621094 " fill-opacity="1" fill-rule="nonzero"/></g></g></g><g fill="#1b2479" fill-opacity="1"><g transform="translate(235.457861, 58.684514)"><g><path d="M 5.203125 4.640625 L 1.109375 0.984375 L 17.046875 -10.328125 L 24.03125 -4.109375 L 17.578125 11 L 17.703125 11.109375 L 30.71875 1.859375 L 34.84375 5.515625 L 18.90625 16.828125 L 11.921875 10.609375 L 18.375 -4.515625 L 18.265625 -4.609375 Z M 5.203125 4.640625 "/></g></g></g><g fill="#1b2479" fill-opacity="1"><g transform="translate(257.913785, 78.679759)"><g><path d="M 8.359375 8.046875 C 6.691406 6.554688 5.488281 5.1875 4.75 3.9375 C 4.007812 2.6875 3.703125 1.488281 3.828125 0.34375 C 3.960938 -0.800781 4.535156 -1.941406 5.546875 -3.078125 C 6.296875 -3.921875 7.289062 -4.78125 8.53125 -5.65625 C 10.644531 -7.15625 12.503906 -8.101562 14.109375 -8.5 C 15.722656 -8.894531 17.332031 -8.753906 18.9375 -8.078125 C 20.539062 -7.410156 22.398438 -6.132812 24.515625 -4.25 C 27.640625 -1.46875 30.441406 1.21875 32.921875 3.8125 L 28.796875 6.984375 C 27.128906 5.097656 24.757812 2.566406 21.6875 -0.609375 C 20.582031 -1.722656 19.222656 -3.046875 17.609375 -4.578125 L 8.25 2.0625 C 9.71875 3.28125 11.210938 4.507812 12.734375 5.75 C 15.273438 7.8125 18.195312 10.003906 21.5 12.328125 L 17.109375 15.234375 C 14.179688 13.035156 11.265625 10.640625 8.359375 8.046875 Z M 8.359375 8.046875 "/></g></g></g><g fill="#1b2479" fill-opacity="1"><g transform="translate(277.296138, 95.938228)"><g><path d="M 9.6875 9.234375 C 5.832031 5.796875 2.734375 2.742188 0.390625 0.078125 L 4.5 -3.078125 C 6.832031 -0.347656 8.757812 1.785156 10.28125 3.328125 C 11.664062 4.753906 13.488281 6.535156 15.75 8.671875 L 18.375 6.796875 L 11.65625 -0.15625 C 8.945312 -2.9375 8.488281 -5.328125 10.28125 -7.328125 C 10.632812 -7.734375 11.039062 -8.085938 11.5 -8.390625 C 12.59375 -9.191406 13.703125 -9.632812 14.828125 -9.71875 C 15.960938 -9.800781 17.171875 -9.523438 18.453125 -8.890625 C 19.734375 -8.253906 21.164062 -7.234375 22.75 -5.828125 C 24.175781 -4.554688 25.5625 -3.265625 26.90625 -1.953125 C 28.257812 -0.640625 29.875 0.992188 31.75 2.953125 L 27.59375 6.109375 C 25.300781 3.398438 23.132812 1.015625 21.09375 -1.046875 C 19.738281 -2.441406 18.347656 -3.78125 16.921875 -5.0625 L 14.40625 -3.25 L 20.71875 3.34375 C 22.175781 4.875 23.054688 6.265625 23.359375 7.515625 C 23.660156 8.773438 23.351562 9.914062 22.4375 10.9375 C 22.125 11.289062 21.695312 11.65625 21.15625 12.03125 C 20.082031 12.789062 18.992188 13.21875 17.890625 13.3125 C 16.785156 13.40625 15.566406 13.128906 14.234375 12.484375 C 12.910156 11.835938 11.394531 10.753906 9.6875 9.234375 Z M 9.6875 9.234375 "/></g></g></g><g fill="#1b2479" fill-opacity="1"><g transform="translate(296.260316, 112.824346)"><g><path d="M 27.578125 -0.9375 L 33.796875 4.59375 L 33.671875 4.65625 L 19.421875 2.8125 L 18.3125 16.109375 L 18.1875 16.203125 L 13.015625 11.578125 L 13.96875 2.125 L 9.90625 1.59375 L 5.390625 4.796875 L 1.109375 0.984375 L 17.046875 -10.328125 L 21.328125 -6.515625 L 15.640625 -2.484375 Z M 27.578125 -0.9375 "/></g></g></g><g fill="#1b2479" fill-opacity="1"><g transform="translate(315.830846, 130.250373)"><g><path d="M 14.125 12.578125 L 0.15625 0.140625 L 4 -2.59375 L 8.9375 1.796875 L 17.203125 -4.0625 L 12.28125 -8.4375 L 16.109375 -11.15625 L 30.078125 1.28125 L 26.25 4 L 21.296875 -0.421875 L 13.015625 5.421875 L 17.96875 9.84375 Z M 14.125 12.578125 "/></g></g></g><g fill="#1b2479" fill-opacity="1"><g transform="translate(332.578699, 145.163026)"><g><path d="M 10.15625 9.046875 L 5.875 5.234375 L 17.75 -3.203125 L 10.84375 -9.359375 L 14.890625 -12.25 L 33.015625 3.90625 L 28.96875 6.78125 L 22.046875 0.625 Z M 10.15625 9.046875 "/></g></g></g></svg>